# xmcd
#
# Track frame offsets:
#	150
#	14946
#	31506
#	48214
#	65417
#	82436
#	97102
#	112665
#	127905
#	143749
#	157365
#	174105
#	188496
#	204271
#	222091
#	241300
#	255175
#	270256
#	285672
#
# Disc length: 3968 seconds
#
# Revision: 1
# Processed by: cddbd v1.5.2PL0 Copyright (c) Steve Scherf et al.
# Submitted via: audiograbber 1.82.02
#
DISCID=fc0f7e13
DTITLE=Various Artist - Country Radio - October 2016
DYEAR=2016
DGENRE=Country
TTITLE0=Toby Keith - A Few More Cowboys
TTITLE1=Cole Swindell - Middle Of A Memory
TTITLE2=Luke Bryan - Move
TTITLE3=Band Perry - Comeback Kid
TTITLE4=Keith Urban - Blue Ain't Your Color
TTITLE5=Eric Church - Kill A Word
TTITLE6=Aaron Goodvin - Woman In Love
TTITLE7=Chris Lane - For Her
TTITLE8=Cody Jinks - I'm Not The Devil
TTITLE9=Jake Worthington - How Do You Honky Tonk
TTITLE10=Florida Georgia Line (Ft. Tim McGraw) - May We All
TTITLE11=Jake Owen (Ft. Ronnie Dunn) - American Country Love Song (Duet)
TTITLE12=Kenny Chesney (Ft. Pink) - Setting The World On Fire
TTITLE13=Aaron Lewis - That Ain't Country
TTITLE14=Shawn B. Wells - As Long As I've Got You
TTITLE15=Brantley Gilbert - Weekend, The
TTITLE16=Casey Donahew - Kiss Me
TTITLE17=Adam Craig - Reckon
TTITLE18=Kevin MaC - #Winning
EXTD=
EXTT0=
EXTT1=
EXTT2=
EXTT3=
EXTT4=
EXTT5=
EXTT6=
EXTT7=
EXTT8=
EXTT9=
EXTT10=
EXTT11=
EXTT12=
EXTT13=
EXTT14=
EXTT15=
EXTT16=
EXTT17=
EXTT18=
PLAYORDER=
